# xmcd CD database file
#
# Track frame offsets:
#	150
#	21175
#	43142
#	60967
#	84970
#	107970
#	124950
#	144137
#	169250
#	198675
#
# Disc length: 2743 seconds
#
# Revision: 0
# Processed by: cddbd v1.5.1PL0 Copyright (c) Steve Scherf et al.
# Submitted via: CDex 1.51
#
DISCID=860ab50a
DTITLE=GUN-BA-RUN-DA CLUB - Harmony
DYEAR=1986
DGENRE=JPop
TTITLE0=Downtown Rhapsody
TTITLE1=Hurt
TTITLE2=Winter Song
TTITLE3=Christmas White
TTITLE4=All We Need Is Love
TTITLE5=Samba de GAN-BA
TTITLE6=Ruled Paradise
TTITLE7=Realize
TTITLE8=Believe In Magic
TTITLE9=Samba de GAN-BA(Reprise)
EXTD=YEAR: 1986
EXTT0=
EXTT1=
EXTT2=
EXTT3=
EXTT4=
EXTT5=
EXTT6=
EXTT7=
EXTT8=
EXTT9=
PLAYORDER=
